<?xml version="1.0" encoding="UTF-8"?>
<svg width="150px" height="33px" viewBox="0 0 150 33" version="1.1" xmlns="http://www.w3.org/2000/svg" xmlns:xlink="http://www.w3.org/1999/xlink">
    <!-- Generator: Sketch 53.2 (72643) - https://sketchapp.com -->
    <title>Group</title>
    <desc>Created with Sketch.</desc>
    <defs>
        <polyline id="path-1" points="7.11490385 12.3331731 21.377524 4.09867788 14.3004808 0.0126201923 0.146033654 8.18473558 0.146033654 24.5286058 14.3004808 16.3564904 21.4860577 20.3798077 7.2234375 28.6146635 14.3004808 32.7007212 28.4545673 24.5286058 28.4545673 8.18473558 14.3004808 16.3564904 7.11490385 12.3331731"></polyline>
        <linearGradient x1="50.5389191%" y1="102.919199%" x2="50.5389191%" y2="12.7200927%" id="linearGradient-3">
            <stop stop-color="#244E70" offset="0%"></stop>
            <stop stop-color="#00A3DA" offset="100%"></stop>
        </linearGradient>
    </defs>
    <g id="Page-1" stroke="none" stroke-width="1" fill="none" fill-rule="evenodd">
        <g id="logo-vertical" transform="translate(-213.000000, -253.000000)">
            <g id="Group" transform="translate(213.000000, 253.000000)">
                <g id="Group-4">
                    <mask id="mask-2" fill="white">
                        <use xlink:href="#path-1"></use>
                    </mask>
                    <g id="Clip-3"></g>
                    <polyline id="Fill-2" fill="url(#linearGradient-3)" mask="url(#mask-2)" points="7.11490385 12.3331731 21.377524 4.09867788 14.3004808 0.0126201923 0.146033654 8.18473558 0.146033654 24.5286058 14.3004808 16.3564904 21.4860577 20.3798077 7.2234375 28.6146635 14.3004808 32.7007212 28.4545673 24.5286058 28.4545673 8.18473558 14.3004808 16.3564904 7.11490385 12.3331731"></polyline>
                </g>
                <path d="M39.3039663,12.7795673 C39.3039663,12.2509615 39.5311298,11.8020433 39.9832933,11.4324519 C40.4361779,11.0628606 41.0700721,10.8778846 41.8846154,10.8778846 C42.6100962,10.8778846 43.3272837,11.0174279 44.0358173,11.2961538 C44.7454327,11.575601 45.4622596,11.9790865 46.1870192,12.5076923 L47.6819712,10.4019231 C46.8663462,9.75252404 45.9951923,9.25817308 45.065625,8.91850962 C44.1382212,8.57956731 43.0932692,8.409375 41.9304087,8.409375 C41.1461538,8.409375 40.4213942,8.51899038 39.756851,8.7375 C39.0930288,8.95637019 38.5236779,9.26971154 38.0469952,9.67716346 C37.5717548,10.0846154 37.1981971,10.5713942 36.9270433,11.1375 C36.6544471,11.7036058 36.5188702,12.3342548 36.5188702,13.0280048 C36.5188702,13.7675481 36.6360577,14.3945913 36.8700721,14.9073317 C37.1044471,15.4204327 37.4441106,15.8585337 37.8890625,16.2205529 C38.334375,16.5825721 38.884976,16.884375 39.541226,17.1263221 C40.1981971,17.3675481 40.9489183,17.5867788 41.7955529,17.7825721 C42.5347356,17.9635817 43.1347356,18.1377404 43.5948317,18.3039663 C44.0545673,18.4694712 44.4173077,18.646875 44.68125,18.8354567 C44.9455529,19.0247596 45.1265625,19.2320913 45.2242788,19.4585337 C45.3219952,19.684976 45.3721154,19.9413462 45.3721154,20.2280048 C45.3721154,20.8471154 45.1197115,21.3378606 44.6127404,21.6998798 C44.1082933,22.0615385 43.4253606,22.2425481 42.5639423,22.2425481 C41.5676683,22.2425481 40.6770433,22.0655048 39.893149,21.7114183 C39.1074519,21.35625 38.3296875,20.8471154 37.5609375,20.1825721 L35.884976,22.1747596 C36.8354567,23.0358173 37.8699519,23.6736779 38.9866587,24.0879808 C40.1040865,24.5040865 41.2734375,24.7110577 42.4972356,24.7110577 C43.3272837,24.7110577 44.0884615,24.6057692 44.7836538,24.39375 C45.4777644,24.1828125 46.0745192,23.8730769 46.5721154,23.465625 C47.0697115,23.0581731 47.458774,22.5598558 47.7382212,21.9717548 C48.0176683,21.3822115 48.1572115,20.7115385 48.1572115,19.956851 C48.1572115,19.2923077 48.0472356,18.7153846 47.8283654,18.2246394 C47.608774,17.7338942 47.2885817,17.3033654 46.8663462,16.933774 C46.4433894,16.5641827 45.9122596,16.2508413 45.2697115,15.9941106 C44.6282452,15.7377404 43.8926683,15.503726 43.0626202,15.2924279 C42.3075721,15.1114183 41.6844952,14.9376202 41.1941106,14.7717548 C40.7040865,14.6055288 40.3189904,14.4245192 40.0395433,14.2280048 C39.7608173,14.031851 39.5689904,13.8205529 39.461899,13.5944712 C39.35625,13.3680288 39.3039663,13.0961538 39.3039663,12.7795673 Z M51.2819712,24.4846154 L54.0216346,24.4846154 L54.0216346,7.95649038 L51.2819712,7.95649038 L51.2819712,24.4846154 Z M59.6805288,19.4808894 L68.4652644,19.4808894 C68.4807692,19.3453125 68.4923077,19.2165865 68.4991587,19.0957933 C68.5078125,18.9757212 68.5114183,18.8545673 68.5114183,18.733774 C68.5114183,17.8734375 68.390625,17.0509615 68.1490385,16.2659856 C67.9070913,15.4813702 67.5479567,14.7941106 67.0730769,14.2060096 C66.5978365,13.6164663 66.0014423,13.1491587 65.2846154,12.8019231 C64.5674279,12.4543269 63.7334135,12.28125 62.7829327,12.28125 C61.921875,12.28125 61.1379808,12.447476 60.4276442,12.7795673 C59.7183894,13.1112981 59.1039663,13.5602163 58.5822115,14.1266827 C58.061899,14.6917067 57.6591346,15.3526442 57.3717548,16.1073317 C57.0850962,16.8620192 56.9419471,17.669351 56.9419471,18.5304087 C56.9419471,19.4653846 57.100601,20.3149038 57.4171875,21.077524 C57.7344952,21.8390625 58.1671875,22.4920673 58.7177885,23.0358173 C59.2701923,23.5788462 59.9185096,24.0018029 60.6667067,24.3036058 C61.4134615,24.6057692 62.2161058,24.7564904 63.0771635,24.7564904 C64.1794471,24.7564904 65.1259615,24.5524038 65.918149,24.1449519 C66.7106971,23.7375 67.3939904,23.19375 67.9669471,22.5144231 L66.3605769,21.0883413 C65.8766827,21.5563702 65.3870192,21.9115385 64.8887019,22.1527644 C64.3903846,22.394351 63.8019231,22.5144231 63.1225962,22.5144231 C62.2323317,22.5144231 61.4772837,22.2551683 60.8581731,21.7334135 C60.2397837,21.213101 59.8478365,20.4620192 59.6805288,19.4808894 Z M59.6574519,17.669351 C59.7793269,16.7336538 60.1143029,15.9757212 60.6667067,15.3941106 C61.2173077,14.8135817 61.9157452,14.5222356 62.7598558,14.5222356 C63.2127404,14.5222356 63.6169471,14.6055288 63.9713942,14.7717548 C64.3258413,14.9376202 64.6319712,15.1600962 64.8887019,15.4395433 C65.1450721,15.7182692 65.3491587,16.0503606 65.4995192,16.4354567 C65.6513221,16.8205529 65.7490385,17.2319712 65.79375,17.669351 L59.6574519,17.669351 Z M73.3561298,19.4808894 L82.1408654,19.4808894 C82.1552885,19.3453125 82.1675481,19.2165865 82.1747596,19.0957933 C82.1823317,18.9757212 82.1862981,18.8545673 82.1862981,18.733774 C82.1862981,17.8734375 82.0658654,17.0509615 81.8242788,16.2659856 C81.5823317,15.4813702 81.2235577,14.7941106 80.7483173,14.2060096 C80.2730769,13.6164663 79.6770433,13.1491587 78.9598558,12.8019231 C78.2419471,12.4543269 77.4086538,12.28125 76.4581731,12.28125 C75.5971154,12.28125 74.8132212,12.447476 74.1032452,12.7795673 C73.3939904,13.1112981 72.7784856,13.5602163 72.2578125,14.1266827 C71.7371394,14.6917067 71.334375,15.3526442 71.046274,16.1073317 C70.7606971,16.8620192 70.6171875,17.669351 70.6171875,18.5304087 C70.6171875,19.4653846 70.7751202,20.3149038 71.0924279,21.077524 C71.4090144,21.8390625 71.8424279,22.4920673 72.3933894,23.0358173 C72.9454327,23.5788462 73.5941106,24.0018029 74.3419471,24.3036058 C75.0887019,24.6057692 75.8913462,24.7564904 76.7516827,24.7564904 C77.8546875,24.7564904 78.8012019,24.5524038 79.5930288,24.1449519 C80.3855769,23.7375 81.0695913,23.19375 81.6425481,22.5144231 L80.0358173,21.0883413 C79.5522837,21.5563702 79.0622596,21.9115385 78.5632212,22.1527644 C78.0649038,22.394351 77.4771635,22.5144231 76.7978365,22.5144231 C75.9075721,22.5144231 75.1528846,22.2551683 74.533774,21.7334135 C73.915024,21.213101 73.5223558,20.4620192 73.3561298,19.4808894 Z M73.3330529,17.669351 C73.4538462,16.7336538 73.7895433,15.9757212 74.3419471,15.3941106 C74.8925481,14.8135817 75.5902644,14.5222356 76.4350962,14.5222356 C76.8879808,14.5222356 77.2918269,14.6055288 77.6459135,14.7717548 C78.0010817,14.9376202 78.3075721,15.1600962 78.5632212,15.4395433 C78.8195913,15.7182692 79.0247596,16.0503606 79.1747596,16.4354567 C79.3265625,16.8205529 79.4242788,17.2319712 79.4689904,17.669351 L73.3330529,17.669351 Z M91.2198317,17.3981971 L95.9740385,12.5300481 L92.6466346,12.5300481 L87.6883413,17.8280048 L87.6883413,7.95649038 L84.9486779,7.95649038 L84.9486779,24.4846154 L87.6883413,24.4846154 L87.6883413,21.0659856 L89.3635817,19.3222356 L92.9639423,24.4846154 L96.1326923,24.4846154 L91.2198317,17.3981971 Z M110.035096,8.63581731 L98.6466346,8.63581731 L98.6466346,24.4846154 L100.434736,24.4846154 L100.434736,17.5792067 L109.016106,17.5792067 L109.016106,15.9486779 L100.434736,15.9486779 L100.434736,10.2887019 L110.035096,10.2887019 L110.035096,8.63581731 Z M113.3625,24.4846154 L115.106971,24.4846154 L115.106971,7.95649038 L113.3625,7.95649038 L113.3625,24.4846154 Z M130.63774,18.6205529 C130.63774,17.7901442 130.48738,17.0055288 130.185577,16.2659856 C129.882692,15.5268029 129.460817,14.8813702 128.917788,14.3296875 C128.374038,13.7790865 127.729327,13.3417067 126.980769,13.0164663 C126.234375,12.6923077 125.422716,12.5300481 124.546875,12.5300481 C123.656611,12.5300481 122.838822,12.6923077 122.090986,13.0164663 C121.34387,13.3417067 120.698438,13.7830529 120.154688,14.341226 C119.61238,14.8997596 119.188702,15.5527644 118.886899,16.2998798 C118.585096,17.0469952 118.434014,17.8355769 118.434014,18.6659856 C118.434014,19.4963942 118.585096,20.2810096 118.886899,21.0205529 C119.188702,21.7604567 119.61238,22.4051683 120.154688,22.9557692 C120.698438,23.5074519 121.340625,23.9448317 122.080168,24.2697115 C122.81863,24.5938702 123.627404,24.7564904 124.503245,24.7564904 C125.378005,24.7564904 126.192909,24.5938702 126.947596,24.2697115 C127.702644,23.9448317 128.350962,23.5034856 128.894712,22.9449519 C129.43774,22.3867788 129.864303,21.7334135 130.173317,20.9866587 C130.483413,20.2395433 130.63774,19.4509615 130.63774,18.6205529 Z M128.849279,18.6659856 C128.849279,19.2998798 128.742909,19.8919471 128.531971,20.4436298 C128.321755,20.9942308 128.027524,21.4734375 127.65,21.8805288 C127.272837,22.2879808 126.819231,22.6092548 126.291346,22.8436298 C125.76238,23.0776442 125.182212,23.19375 124.546875,23.19375 C123.929207,23.19375 123.355529,23.0736779 122.826563,22.8320913 C122.298678,22.5901442 121.842188,22.265625 121.457091,21.8585337 C121.071995,21.4510817 120.770913,20.9671875 120.552043,20.4090144 C120.333173,19.8504808 120.223197,19.2544471 120.223197,18.6205529 C120.223197,17.9866587 120.329567,17.3942308 120.539784,16.8436298 C120.750721,16.2923077 121.042788,15.8094952 121.411659,15.3941106 C121.781971,14.9790865 122.230168,14.6549279 122.759495,14.4205529 C123.28774,14.1865385 123.86863,14.069351 124.503245,14.069351 C125.121635,14.069351 125.695313,14.1905048 126.222837,14.4320913 C126.752163,14.6733173 127.211178,15.0014423 127.604567,15.4164663 C127.996514,15.831851 128.302284,16.3182692 128.521875,16.877524 C128.740745,17.4360577 128.849279,18.0320913 128.849279,18.6659856 Z M141.755048,12.7341346 L140.305529,12.7341346 L137.158774,22.1747596 L134.079447,12.7795673 L132.222837,12.7795673 L136.320072,24.5754808 L137.861178,24.5754808 L141.029567,15.3378606 L144.177404,24.5754808 L145.694712,24.5754808 L149.814303,12.7795673 L148.004567,12.7795673 L144.923798,22.1747596 L141.755048,12.7341346 L141.755048,12.7341346 Z" id="Fill-5" fill="#12608C"></path>
            </g>
        </g>
    </g>
</svg>