<?xml version="1.0" encoding="UTF-8"?>
<svg width="158px" height="33px" viewBox="0 0 158 33" version="1.1" xmlns="http://www.w3.org/2000/svg" xmlns:xlink="http://www.w3.org/1999/xlink">
    <!-- Generator: Sketch 53.2 (72643) - https://sketchapp.com -->
    <title>Sleekflow_logo_2x</title>
    <desc>Created with Sketch.</desc>
    <g id="Page-1" stroke="none" stroke-width="1" fill="none" fill-rule="evenodd">
        <g id="Sleekflow_logo_2x" fill-rule="nonzero">
            <g id="Logo_circle">
                <circle id="Oval" fill="#0F6593" cx="16.5" cy="16.5" r="16.5"></circle>
                <polyline id="Fill-2" fill="#FFFFFE" points="26.7056625 22.4247375 26.7056625 10.635075 16.4956275 16.529865 11.3123175 13.62768 21.6005625 7.6875975 16.4956275 4.74012 6.2852625 10.635075 6.2852625 22.4247375 16.4956275 16.529865 21.6789375 19.43205 11.39061 25.3721325 16.4956275 28.3196925 26.7056625 22.4247375"></polyline>
            </g>
            <path d="M47.3039663,12.7795673 C47.3039663,12.2509615 47.5311298,11.8020433 47.9832933,11.4324519 C48.4361779,11.0628606 49.0700721,10.8778846 49.8846154,10.8778846 C50.6100962,10.8778846 51.3272837,11.0174279 52.0358173,11.2961538 C52.7454327,11.575601 53.4622596,11.9790865 54.1870192,12.5076923 L55.6819712,10.4019231 C54.8663462,9.75252404 53.9951923,9.25817308 53.065625,8.91850962 C52.1382212,8.57956731 51.0932692,8.409375 49.9304087,8.409375 C49.1461538,8.409375 48.4213942,8.51899038 47.756851,8.7375 C47.0930288,8.95637019 46.5236779,9.26971154 46.0469952,9.67716346 C45.5717548,10.0846154 45.1981971,10.5713942 44.9270433,11.1375 C44.6544471,11.7036058 44.5188702,12.3342548 44.5188702,13.0280048 C44.5188702,13.7675481 44.6360577,14.3945913 44.8700721,14.9073317 C45.1044471,15.4204327 45.4441106,15.8585337 45.8890625,16.2205529 C46.334375,16.5825721 46.884976,16.884375 47.541226,17.1263221 C48.1981971,17.3675481 48.9489183,17.5867788 49.7955529,17.7825721 C50.5347356,17.9635817 51.1347356,18.1377404 51.5948317,18.3039663 C52.0545673,18.4694712 52.4173077,18.646875 52.68125,18.8354567 C52.9455529,19.0247596 53.1265625,19.2320913 53.2242788,19.4585337 C53.3219952,19.684976 53.3721154,19.9413462 53.3721154,20.2280048 C53.3721154,20.8471154 53.1197115,21.3378606 52.6127404,21.6998798 C52.1082933,22.0615385 51.4253606,22.2425481 50.5639423,22.2425481 C49.5676683,22.2425481 48.6770433,22.0655048 47.893149,21.7114183 C47.1074519,21.35625 46.3296875,20.8471154 45.5609375,20.1825721 L43.884976,22.1747596 C44.8354567,23.0358173 45.8699519,23.6736779 46.9866587,24.0879808 C48.1040865,24.5040865 49.2734375,24.7110577 50.4972356,24.7110577 C51.3272837,24.7110577 52.0884615,24.6057692 52.7836538,24.39375 C53.4777644,24.1828125 54.0745192,23.8730769 54.5721154,23.465625 C55.0697115,23.0581731 55.458774,22.5598558 55.7382212,21.9717548 C56.0176683,21.3822115 56.1572115,20.7115385 56.1572115,19.956851 C56.1572115,19.2923077 56.0472356,18.7153846 55.8283654,18.2246394 C55.608774,17.7338942 55.2885817,17.3033654 54.8663462,16.933774 C54.4433894,16.5641827 53.9122596,16.2508413 53.2697115,15.9941106 C52.6282452,15.7377404 51.8926683,15.503726 51.0626202,15.2924279 C50.3075721,15.1114183 49.6844952,14.9376202 49.1941106,14.7717548 C48.7040865,14.6055288 48.3189904,14.4245192 48.0395433,14.2280048 C47.7608173,14.031851 47.5689904,13.8205529 47.461899,13.5944712 C47.35625,13.3680288 47.3039663,13.0961538 47.3039663,12.7795673 Z M59.2819712,24.4846154 L62.0216346,24.4846154 L62.0216346,7.95649038 L59.2819712,7.95649038 L59.2819712,24.4846154 Z M67.6805288,19.4808894 L76.4652644,19.4808894 C76.4807692,19.3453125 76.4923077,19.2165865 76.4991587,19.0957933 C76.5078125,18.9757212 76.5114183,18.8545673 76.5114183,18.733774 C76.5114183,17.8734375 76.390625,17.0509615 76.1490385,16.2659856 C75.9070913,15.4813702 75.5479567,14.7941106 75.0730769,14.2060096 C74.5978365,13.6164663 74.0014423,13.1491587 73.2846154,12.8019231 C72.5674279,12.4543269 71.7334135,12.28125 70.7829327,12.28125 C69.921875,12.28125 69.1379808,12.447476 68.4276442,12.7795673 C67.7183894,13.1112981 67.1039663,13.5602163 66.5822115,14.1266827 C66.061899,14.6917067 65.6591346,15.3526442 65.3717548,16.1073317 C65.0850962,16.8620192 64.9419471,17.669351 64.9419471,18.5304087 C64.9419471,19.4653846 65.100601,20.3149038 65.4171875,21.077524 C65.7344952,21.8390625 66.1671875,22.4920673 66.7177885,23.0358173 C67.2701923,23.5788462 67.9185096,24.0018029 68.6667067,24.3036058 C69.4134615,24.6057692 70.2161058,24.7564904 71.0771635,24.7564904 C72.1794471,24.7564904 73.1259615,24.5524038 73.918149,24.1449519 C74.7106971,23.7375 75.3939904,23.19375 75.9669471,22.5144231 L74.3605769,21.0883413 C73.8766827,21.5563702 73.3870192,21.9115385 72.8887019,22.1527644 C72.3903846,22.394351 71.8019231,22.5144231 71.1225962,22.5144231 C70.2323317,22.5144231 69.4772837,22.2551683 68.8581731,21.7334135 C68.2397837,21.213101 67.8478365,20.4620192 67.6805288,19.4808894 Z M67.6574519,17.669351 C67.7793269,16.7336538 68.1143029,15.9757212 68.6667067,15.3941106 C69.2173077,14.8135817 69.9157452,14.5222356 70.7598558,14.5222356 C71.2127404,14.5222356 71.6169471,14.6055288 71.9713942,14.7717548 C72.3258413,14.9376202 72.6319712,15.1600962 72.8887019,15.4395433 C73.1450721,15.7182692 73.3491587,16.0503606 73.4995192,16.4354567 C73.6513221,16.8205529 73.7490385,17.2319712 73.79375,17.669351 L67.6574519,17.669351 Z M81.3561298,19.4808894 L90.1408654,19.4808894 C90.1552885,19.3453125 90.1675481,19.2165865 90.1747596,19.0957933 C90.1823317,18.9757212 90.1862981,18.8545673 90.1862981,18.733774 C90.1862981,17.8734375 90.0658654,17.0509615 89.8242788,16.2659856 C89.5823317,15.4813702 89.2235577,14.7941106 88.7483173,14.2060096 C88.2730769,13.6164663 87.6770433,13.1491587 86.9598558,12.8019231 C86.2419471,12.4543269 85.4086538,12.28125 84.4581731,12.28125 C83.5971154,12.28125 82.8132212,12.447476 82.1032452,12.7795673 C81.3939904,13.1112981 80.7784856,13.5602163 80.2578125,14.1266827 C79.7371394,14.6917067 79.334375,15.3526442 79.046274,16.1073317 C78.7606971,16.8620192 78.6171875,17.669351 78.6171875,18.5304087 C78.6171875,19.4653846 78.7751202,20.3149038 79.0924279,21.077524 C79.4090144,21.8390625 79.8424279,22.4920673 80.3933894,23.0358173 C80.9454327,23.5788462 81.5941106,24.0018029 82.3419471,24.3036058 C83.0887019,24.6057692 83.8913462,24.7564904 84.7516827,24.7564904 C85.8546875,24.7564904 86.8012019,24.5524038 87.5930288,24.1449519 C88.3855769,23.7375 89.0695913,23.19375 89.6425481,22.5144231 L88.0358173,21.0883413 C87.5522837,21.5563702 87.0622596,21.9115385 86.5632212,22.1527644 C86.0649038,22.394351 85.4771635,22.5144231 84.7978365,22.5144231 C83.9075721,22.5144231 83.1528846,22.2551683 82.533774,21.7334135 C81.915024,21.213101 81.5223558,20.4620192 81.3561298,19.4808894 Z M81.3330529,17.669351 C81.4538462,16.7336538 81.7895433,15.9757212 82.3419471,15.3941106 C82.8925481,14.8135817 83.5902644,14.5222356 84.4350962,14.5222356 C84.8879808,14.5222356 85.2918269,14.6055288 85.6459135,14.7717548 C86.0010817,14.9376202 86.3075721,15.1600962 86.5632212,15.4395433 C86.8195913,15.7182692 87.0247596,16.0503606 87.1747596,16.4354567 C87.3265625,16.8205529 87.4242788,17.2319712 87.4689904,17.669351 L81.3330529,17.669351 Z M99.2198317,17.3981971 L103.974039,12.5300481 L100.646635,12.5300481 L95.6883413,17.8280048 L95.6883413,7.95649038 L92.9486779,7.95649038 L92.9486779,24.4846154 L95.6883413,24.4846154 L95.6883413,21.0659856 L97.3635817,19.3222356 L100.963942,24.4846154 L104.132692,24.4846154 L99.2198317,17.3981971 Z M118.035096,8.63581731 L106.646635,8.63581731 L106.646635,24.4846154 L108.434736,24.4846154 L108.434736,17.5792067 L117.016106,17.5792067 L117.016106,15.9486779 L108.434736,15.9486779 L108.434736,10.2887019 L118.035096,10.2887019 L118.035096,8.63581731 Z M121.3625,24.4846154 L123.106971,24.4846154 L123.106971,7.95649038 L121.3625,7.95649038 L121.3625,24.4846154 Z M138.63774,18.6205529 C138.63774,17.7901442 138.48738,17.0055288 138.185577,16.2659856 C137.882692,15.5268029 137.460817,14.8813702 136.917788,14.3296875 C136.374038,13.7790865 135.729327,13.3417067 134.980769,13.0164663 C134.234375,12.6923077 133.422716,12.5300481 132.546875,12.5300481 C131.656611,12.5300481 130.838822,12.6923077 130.090986,13.0164663 C129.34387,13.3417067 128.698438,13.7830529 128.154688,14.341226 C127.61238,14.8997596 127.188702,15.5527644 126.886899,16.2998798 C126.585096,17.0469952 126.434014,17.8355769 126.434014,18.6659856 C126.434014,19.4963942 126.585096,20.2810096 126.886899,21.0205529 C127.188702,21.7604567 127.61238,22.4051683 128.154688,22.9557692 C128.698438,23.5074519 129.340625,23.9448317 130.080168,24.2697115 C130.81863,24.5938702 131.627404,24.7564904 132.503245,24.7564904 C133.378005,24.7564904 134.192909,24.5938702 134.947596,24.2697115 C135.702644,23.9448317 136.350962,23.5034856 136.894712,22.9449519 C137.43774,22.3867788 137.864303,21.7334135 138.173317,20.9866587 C138.483413,20.2395433 138.63774,19.4509615 138.63774,18.6205529 Z M136.849279,18.6659856 C136.849279,19.2998798 136.742909,19.8919471 136.531971,20.4436298 C136.321755,20.9942308 136.027524,21.4734375 135.65,21.8805288 C135.272837,22.2879808 134.819231,22.6092548 134.291346,22.8436298 C133.76238,23.0776442 133.182212,23.19375 132.546875,23.19375 C131.929207,23.19375 131.355529,23.0736779 130.826563,22.8320913 C130.298678,22.5901442 129.842188,22.265625 129.457091,21.8585337 C129.071995,21.4510817 128.770913,20.9671875 128.552043,20.4090144 C128.333173,19.8504808 128.223197,19.2544471 128.223197,18.6205529 C128.223197,17.9866587 128.329567,17.3942308 128.539784,16.8436298 C128.750721,16.2923077 129.042788,15.8094952 129.411659,15.3941106 C129.781971,14.9790865 130.230168,14.6549279 130.759495,14.4205529 C131.28774,14.1865385 131.86863,14.069351 132.503245,14.069351 C133.121635,14.069351 133.695313,14.1905048 134.222837,14.4320913 C134.752163,14.6733173 135.211178,15.0014423 135.604567,15.4164663 C135.996514,15.831851 136.302284,16.3182692 136.521875,16.877524 C136.740745,17.4360577 136.849279,18.0320913 136.849279,18.6659856 Z M149.755048,12.7341346 L148.305529,12.7341346 L145.158774,22.1747596 L142.079447,12.7795673 L140.222837,12.7795673 L144.320072,24.5754808 L145.861178,24.5754808 L149.029567,15.3378606 L152.177404,24.5754808 L153.694712,24.5754808 L157.814303,12.7795673 L156.004567,12.7795673 L152.923798,22.1747596 L149.755048,12.7341346 L149.755048,12.7341346 Z" id="Fill-5" fill="#12608C"></path>
        </g>
    </g>
</svg>